<svg xmlns="http://www.w3.org/2000/svg" xmlns:xlink="http://www.w3.org/1999/xlink" width="790" height="602.75"><rect width="790" height="602.75" rx="5" ry="5" class="a"/><svg y="0%" x="0%"><circle cx="20" cy="20" r="6" fill="#ff5f58"/><circle cx="40" cy="20" r="6" fill="#ffbd2e"/><circle cx="60" cy="20" r="6" fill="#18c132"/></svg><svg height="542.75" viewBox="0 0 75 54.275" width="750" x="15" xmlns="http://www.w3.org/2000/svg" xmlns:xlink="http://www.w3.org/1999/xlink" y="50"><style>@keyframes j{0%{transform:translateX(0)}.04%{transform:translateX(-75px)}.97%{transform:translateX(-150px)}5.59%{transform:translateX(-225px)}21.16%{transform:translateX(-375px)}21.36%{transform:translateX(-525px)}21.56%{transform:translateX(-750px)}21.73%{transform:translateX(-825px)}26.86%{transform:translateX(-975px)}37.04%{transform:translateX(-1050px)}37.44%{transform:translateX(-1125px)}37.89%{transform:translateX(-1275px)}38.22%{transform:translateX(-1350px)}38.23%{transform:translateX(-1425px)}38.6%{transform:translateX(-1500px)}51.43%{transform:translateX(-1575px)}59.45%{transform:translateX(-1650px)}59.87%{transform:translateX(-1725px)}60.29%{transform:translateX(-1800px)}60.61%{transform:translateX(-1950px)}61.02%{transform:translateX(-2100px)}61.43%{transform:translateX(-2175px)}61.44%{transform:translateX(-2250px)}61.8%{transform:translateX(-2325px)}62.2%{transform:translateX(-2400px)}62.61%{transform:translateX(-2475px)}71.12%{transform:translateX(-2550px)}71.93%{transform:translateX(-2700px)}to{transform:translateX(-2775px)}}.a{fill:#080808}.f,.g{fill:#a5a2a2;white-space:pre}.g{fill:#8700ff}</style><g font-family="Monaco,Consolas,Menlo,'Bitstream Vera Sans Mono','Powerline Symbols',monospace" font-size="1.67"><defs><symbol id="1"><text y="1.67" class="f">FILTER_PART=code</text><text x="17.034" y="1.67" class="f">node</text><text x="22.044" y="1.67" class="f">index.js</text></symbol><symbol id="2"><text y="1.67" class="f">✨</text><text x="3.006" y="1.67" class="f">Calling</text><text x="11.022" y="1.67" class="f">OpenAI</text></symbol><symbol id="3"><text y="1.67" class="f">✨</text><text x="3.006" y="1.67" class="f">OpenAI</text><text x="10.02" y="1.67" class="f">stream</text><text x="17.034" y="1.67" class="f">beginning</text></symbol><symbol id="4"><text y="1.67" class="g">print(&apos;Hello,</text></symbol><symbol id="5"><text y="1.67" class="g">print(&apos;Hello,</text><text x="14.028" y="1.67" class="g">World&apos;)</text></symbol><symbol id="6"><text y="1.67" class="g">console.log(&apos;Hello,</text><text x="20.04" y="1.67" class="g">World&apos;);</text></symbol><symbol id="7"><text y="1.67" class="g">fn</text><text x="3.006" y="1.67" class="g">main()</text><text x="10.02" y="1.67" class="g">{</text></symbol><symbol id="8"><text x="4.008" y="1.67" class="g">println!(&quot;Hello,</text><text x="21.042" y="1.67" class="g">World&quot;);</text></symbol><symbol id="9"><text y="1.67" class="g">}</text></symbol><symbol id="10"><text y="1.67" class="f">✨</text><text x="3.006" y="1.67" class="f">The</text><text x="7.014" y="1.67" class="f">OpenAI</text><text x="14.028" y="1.67" class="f">call</text><text x="19.038" y="1.67" class="f">completed.</text></symbol><symbol id="11"><text y="1.67" class="f">✨</text><text x="3.006" y="1.67" class="f">Summary:</text></symbol><symbol id="12"><text y="1.67" class="f">Received</text><text x="9.018" y="1.67" class="f">a</text><text x="11.022" y="1.67" class="f">python</text><text x="18.036" y="1.67" class="f">program</text><text x="26.052" y="1.67" class="f">that</text><text x="31.062" y="1.67" class="f">was</text><text x="35.07" y="1.67" class="f">21</text><text x="38.076" y="1.67" class="f">characters</text><text x="49.098" y="1.67" class="f">long.</text></symbol><symbol id="13"><text y="1.67" class="f">Received</text><text x="9.018" y="1.67" class="f">a</text><text x="11.022" y="1.67" class="f">javascript</text><text x="22.044" y="1.67" class="f">program</text><text x="30.06" y="1.67" class="f">that</text><text x="35.07" y="1.67" class="f">was</text><text x="39.078" y="1.67" class="f">28</text><text x="42.084" y="1.67" class="f">characters</text><text x="53.106" y="1.67" class="f">long.</text></symbol><symbol id="14"><text y="1.67" class="f">Received</text><text x="9.018" y="1.67" class="f">a</text><text x="11.022" y="1.67" class="f">rust</text><text x="16.032" y="1.67" class="f">program</text><text x="24.048" y="1.67" class="f">that</text><text x="29.058" y="1.67" class="f">was</text><text x="33.066" y="1.67" class="f">43</text><text x="36.072" y="1.67" class="f">characters</text><text x="47.094" y="1.67" class="f">long.</text></symbol><symbol id="a"><path fill="transparent" d="M0 0h75v26H0z"/></symbol><symbol id="b"><path fill="#a5a2a2" d="M0 0h1.102v2.171H0z"/></symbol></defs><path class="a" d="M0 0h75v54.275H0z"/><g style="animation-duration:17.838392s;animation-iteration-count:infinite;animation-name:j;animation-timing-function:steps(1,end)"><svg width="2850"><svg><use xlink:href="#a"/><use xlink:href="#b" x="-.004"/></svg><svg x="75"><use xlink:href="#a"/><use xlink:href="#b" x="-.004" y="2.146"/><use xlink:href="#1"/></svg><svg x="150"><use xlink:href="#a"/><use xlink:href="#b" x="-.004" y="4.317"/><use xlink:href="#1"/><use xlink:href="#2" y="2.171"/></svg><svg x="225"><use xlink:href="#a"/><use xlink:href="#b" x="-.004" y="6.488"/><use xlink:href="#1"/><use xlink:href="#2" y="2.171"/><use xlink:href="#3" y="4.342"/></svg><svg x="300"><use xlink:href="#a"/><use xlink:href="#b" x="4.996" y="6.488"/><use xlink:href="#1"/><use xlink:href="#2" y="2.171"/><use xlink:href="#3" y="4.342"/><text y="8.183" class="g">print</text></svg><svg x="375"><use xlink:href="#a"/><use xlink:href="#b" x="6.996" y="6.488"/><use xlink:href="#1"/><use xlink:href="#2" y="2.171"/><use xlink:href="#3" y="4.342"/><text y="8.183" class="g">print(&apos;</text></svg><svg x="450"><use xlink:href="#a"/><use xlink:href="#b" x="11.996" y="6.488"/><use xlink:href="#1"/><use xlink:href="#2" y="2.171"/><use xlink:href="#3" y="4.342"/><text y="8.183" class="g">print(&apos;Hello</text></svg><svg x="525"><use xlink:href="#a"/><use xlink:href="#b" x="12.996" y="6.488"/><use xlink:href="#1"/><use xlink:href="#2" y="2.171"/><use xlink:href="#3" y="4.342"/><use xlink:href="#4" y="6.513"/></svg><svg x="600"><use xlink:href="#a"/><use xlink:href="#b" x="12.996" y="6.488"/><use xlink:href="#1"/><use xlink:href="#2" y="2.171"/><use xlink:href="#3" y="4.342"/><use xlink:href="#4" y="6.513"/></svg><svg x="675"><use xlink:href="#a"/><use xlink:href="#b" x="18.996" y="6.488"/><use xlink:href="#1"/><use xlink:href="#2" y="2.171"/><use xlink:href="#3" y="4.342"/><text y="8.183" class="g">print(&apos;Hello,</text><text x="14.028" y="8.183" class="g">World</text></svg><svg x="750"><use xlink:href="#a"/><use xlink:href="#b" x="20.996" y="6.488"/><use xlink:href="#1"/><use xlink:href="#2" y="2.171"/><use xlink:href="#3" y="4.342"/><use xlink:href="#5" y="6.513"/></svg><svg x="825"><use xlink:href="#a"/><use xlink:href="#b" x="-.004" y="8.659"/><use xlink:href="#1"/><use xlink:href="#2" y="2.171"/><use xlink:href="#3" y="4.342"/><use xlink:href="#5" y="6.513"/></svg><svg x="900"><use xlink:href="#a"/><use xlink:href="#b" x="-.004" y="8.659"/><use xlink:href="#1"/><use xlink:href="#2" y="2.171"/><use xlink:href="#3" y="4.342"/><use xlink:href="#5" y="6.513"/></svg><svg x="975"><use xlink:href="#a"/><use xlink:href="#b" x="-.004" y="13.001"/><use xlink:href="#1"/><use xlink:href="#2" y="2.171"/><use xlink:href="#3" y="4.342"/><use xlink:href="#5" y="6.513"/></svg><svg x="1050"><use xlink:href="#a"/><use xlink:href="#b" x="6.996" y="13.001"/><use xlink:href="#1"/><use xlink:href="#2" y="2.171"/><use xlink:href="#3" y="4.342"/><use xlink:href="#5" y="6.513"/><text y="14.696" class="g">console</text></svg><svg x="1125"><use xlink:href="#a"/><use xlink:href="#b" x="12.996" y="13.001"/><use xlink:href="#1"/><use xlink:href="#2" y="2.171"/><use xlink:href="#3" y="4.342"/><use xlink:href="#5" y="6.513"/><text y="14.696" class="g">console.log(&apos;</text></svg><svg x="1200"><use xlink:href="#a"/><use xlink:href="#b" x="17.996" y="13.001"/><use xlink:href="#1"/><use xlink:href="#2" y="2.171"/><use xlink:href="#3" y="4.342"/><use xlink:href="#5" y="6.513"/><text y="14.696" class="g">console.log(&apos;Hello</text></svg><svg x="1275"><use xlink:href="#a"/><use xlink:href="#b" x="18.996" y="13.001"/><use xlink:href="#1"/><use xlink:href="#2" y="2.171"/><use xlink:href="#3" y="4.342"/><use xlink:href="#5" y="6.513"/><text y="14.696" class="g">console.log(&apos;Hello,</text></svg><svg x="1350"><use xlink:href="#a"/><use xlink:href="#b" x="24.996" y="13.001"/><use xlink:href="#1"/><use xlink:href="#2" y="2.171"/><use xlink:href="#3" y="4.342"/><use xlink:href="#5" y="6.513"/><text y="14.696" class="g">console.log(&apos;Hello,</text><text x="20.04" y="14.696" class="g">World</text></svg><svg x="1425"><use xlink:href="#a"/><use xlink:href="#b" x="27.996" y="13.001"/><use xlink:href="#1"/><use xlink:href="#2" y="2.171"/><use xlink:href="#3" y="4.342"/><use xlink:href="#5" y="6.513"/><use xlink:href="#6" y="13.026"/></svg><svg x="1500"><use xlink:href="#a"/><use xlink:href="#b" x="-.004" y="15.172"/><use xlink:href="#1"/><use xlink:href="#2" y="2.171"/><use xlink:href="#3" y="4.342"/><use xlink:href="#5" y="6.513"/><use xlink:href="#6" y="13.026"/></svg><svg x="1575"><use xlink:href="#a"/><use xlink:href="#b" x="-.004" y="19.514"/><use xlink:href="#1"/><use xlink:href="#2" y="2.171"/><use xlink:href="#3" y="4.342"/><use xlink:href="#5" y="6.513"/><use xlink:href="#6" y="13.026"/></svg><svg x="1650"><use xlink:href="#a"/><use xlink:href="#b" x="6.996" y="19.514"/><use xlink:href="#1"/><use xlink:href="#2" y="2.171"/><use xlink:href="#3" y="4.342"/><use xlink:href="#5" y="6.513"/><use xlink:href="#6" y="13.026"/><text y="21.209" class="g">fn</text><text x="3.006" y="21.209" class="g">main</text></svg><svg x="1725"><use xlink:href="#a"/><use xlink:href="#b" x="10.996" y="19.514"/><use xlink:href="#1"/><use xlink:href="#2" y="2.171"/><use xlink:href="#3" y="4.342"/><use xlink:href="#5" y="6.513"/><use xlink:href="#6" y="13.026"/><use xlink:href="#7" y="19.539"/></svg><svg x="1800"><use xlink:href="#a"/><use xlink:href="#b" x="2.996" y="21.685"/><use xlink:href="#1"/><use xlink:href="#2" y="2.171"/><use xlink:href="#3" y="4.342"/><use xlink:href="#5" y="6.513"/><use xlink:href="#6" y="13.026"/><use xlink:href="#7" y="19.539"/></svg><svg x="1875"><use xlink:href="#a"/><use xlink:href="#b" x="10.996" y="21.685"/><use xlink:href="#1"/><use xlink:href="#2" y="2.171"/><use xlink:href="#3" y="4.342"/><use xlink:href="#5" y="6.513"/><use xlink:href="#6" y="13.026"/><use xlink:href="#7" y="19.539"/><text x="4.008" y="23.38" class="g">println</text></svg><svg x="1950"><use xlink:href="#a"/><use xlink:href="#b" x="12.996" y="21.685"/><use xlink:href="#1"/><use xlink:href="#2" y="2.171"/><use xlink:href="#3" y="4.342"/><use xlink:href="#5" y="6.513"/><use xlink:href="#6" y="13.026"/><use xlink:href="#7" y="19.539"/><text x="4.008" y="23.38" class="g">println!(</text></svg><svg x="2025"><use xlink:href="#a"/><use xlink:href="#b" x="13.996" y="21.685"/><use xlink:href="#1"/><use xlink:href="#2" y="2.171"/><use xlink:href="#3" y="4.342"/><use xlink:href="#5" y="6.513"/><use xlink:href="#6" y="13.026"/><use xlink:href="#7" y="19.539"/><text x="4.008" y="23.38" class="g">println!(&quot;</text></svg><svg x="2100"><use xlink:href="#a"/><use xlink:href="#b" x="18.996" y="21.685"/><use xlink:href="#1"/><use xlink:href="#2" y="2.171"/><use xlink:href="#3" y="4.342"/><use xlink:href="#5" y="6.513"/><use xlink:href="#6" y="13.026"/><use xlink:href="#7" y="19.539"/><text x="4.008" y="23.38" class="g">println!(&quot;Hello</text></svg><svg x="2175"><use xlink:href="#a"/><use xlink:href="#b" x="19.996" y="21.685"/><use xlink:href="#1"/><use xlink:href="#2" y="2.171"/><use xlink:href="#3" y="4.342"/><use xlink:href="#5" y="6.513"/><use xlink:href="#6" y="13.026"/><use xlink:href="#7" y="19.539"/><text x="4.008" y="23.38" class="g">println!(&quot;Hello,</text></svg><svg x="2250"><use xlink:href="#a"/><use xlink:href="#b" x="25.996" y="21.685"/><use xlink:href="#1"/><use xlink:href="#2" y="2.171"/><use xlink:href="#3" y="4.342"/><use xlink:href="#5" y="6.513"/><use xlink:href="#6" y="13.026"/><use xlink:href="#7" y="19.539"/><text x="4.008" y="23.38" class="g">println!(&quot;Hello,</text><text x="21.042" y="23.38" class="g">World</text></svg><svg x="2325"><use xlink:href="#a"/><use xlink:href="#b" x="28.996" y="21.685"/><use xlink:href="#1"/><use xlink:href="#2" y="2.171"/><use xlink:href="#3" y="4.342"/><use xlink:href="#5" y="6.513"/><use xlink:href="#6" y="13.026"/><use xlink:href="#7" y="19.539"/><use xlink:href="#8" y="21.71"/></svg><svg x="2400"><use xlink:href="#a"/><use xlink:href="#b" x="-.004" y="23.856"/><use xlink:href="#1"/><use xlink:href="#2" y="2.171"/><use xlink:href="#3" y="4.342"/><use xlink:href="#5" y="6.513"/><use xlink:href="#6" y="13.026"/><use xlink:href="#7" y="19.539"/><use xlink:href="#8" y="21.71"/></svg><svg x="2475"><use xlink:href="#a"/><use xlink:href="#b" x="-.004" y="26.027"/><use xlink:href="#1"/><use xlink:href="#2" y="2.171"/><use xlink:href="#3" y="4.342"/><use xlink:href="#5" y="6.513"/><use xlink:href="#6" y="13.026"/><use xlink:href="#7" y="19.539"/><use xlink:href="#8" y="21.71"/><use xlink:href="#9" y="23.881"/></svg><svg x="2550"><use xlink:href="#a"/><use xlink:href="#b" x="-.004" y="30.369"/><use xlink:href="#1"/><use xlink:href="#2" y="2.171"/><use xlink:href="#3" y="4.342"/><use xlink:href="#5" y="6.513"/><use xlink:href="#6" y="13.026"/><use xlink:href="#7" y="19.539"/><use xlink:href="#8" y="21.71"/><use xlink:href="#9" y="23.881"/></svg><svg x="2625"><use xlink:href="#a"/><use xlink:href="#b" x="-.004" y="32.54"/><use xlink:href="#1"/><use xlink:href="#2" y="2.171"/><use xlink:href="#3" y="4.342"/><use xlink:href="#5" y="6.513"/><use xlink:href="#6" y="13.026"/><use xlink:href="#7" y="19.539"/><use xlink:href="#8" y="21.71"/><use xlink:href="#9" y="23.881"/></svg><svg x="2700"><use xlink:href="#a"/><use xlink:href="#b" x="-.004" y="49.908"/><use xlink:href="#1"/><use xlink:href="#2" y="2.171"/><use xlink:href="#3" y="4.342"/><use xlink:href="#5" y="6.513"/><use xlink:href="#6" y="13.026"/><use xlink:href="#7" y="19.539"/><use xlink:href="#8" y="21.71"/><use xlink:href="#9" y="23.881"/><use xlink:href="#10" y="32.565"/><use xlink:href="#11" y="34.736"/><use xlink:href="#12" y="36.907"/><use xlink:href="#13" y="41.249"/><use xlink:href="#14" y="45.591"/></svg><svg x="2775"><use xlink:href="#a"/><use xlink:href="#b" x="-.004" y="52.079"/><use xlink:href="#1"/><use xlink:href="#2" y="2.171"/><use xlink:href="#3" y="4.342"/><use xlink:href="#5" y="6.513"/><use xlink:href="#6" y="13.026"/><use xlink:href="#7" y="19.539"/><use xlink:href="#8" y="21.71"/><use xlink:href="#9" y="23.881"/><use xlink:href="#10" y="32.565"/><use xlink:href="#11" y="34.736"/><use xlink:href="#12" y="36.907"/><use xlink:href="#13" y="41.249"/><use xlink:href="#14" y="45.591"/></svg></svg></g></g></svg></svg>